REM COMMENT "Generated by IcecastMetadataRecorder https://github.com/eshaz/icecast-metadata-js"
REM BR "16"
REM METAINT "64"
REM DATE "2020-07-29T21:16:11.222Z"
TITLE "isics-all"
FILE "isics-all.mp3" WAVE
  TRACK 1 AUDIO
    TITLE "2020-07-29T21:19:03.302Z TO:24605 Dallas County Law 1 FROM:UNKNOWN"
    INDEX 01 02:52:06
  TRACK 2 AUDIO
    TITLE "2020-07-29T21:19:07.478Z TO:24605 Dallas County Law 1 FROM:2559984"
    INDEX 01 02:56:19
  TRACK 3 AUDIO
    TITLE "2020-07-29T21:19:09.566Z TO:59908 Warren County Law 1 FROM:9111050"
    INDEX 01 02:58:26
  TRACK 4 AUDIO
    TITLE "2020-07-29T21:19:17.990Z TO:7 Polk County - Westcom Law Enforcement 4 FROM:1377"
    INDEX 01 03:06:58
  TRACK 5 AUDIO
    TITLE "2020-07-29T21:19:24.974Z TO:24605 Dallas County Law 1 FROM:2510011"
    INDEX 01 03:13:56
  TRACK 6 AUDIO
    TITLE "2020-07-29T21:19:28.430Z TO:59908 Warren County Law 1 FROM:9199991"
    INDEX 01 03:17:16
  TRACK 7 AUDIO
    TITLE "2020-07-29T21:19:31.238Z TO:7 Polk County - Westcom Law Enforcement 4 FROM:1481"
    INDEX 01 03:20:01
  TRACK 8 AUDIO
    TITLE "2020-07-29T21:19:36.854Z TO:24605 Dallas County Law 1 FROM:2559984"
    INDEX 01 03:25:47
  TRACK 9 AUDIO
    TITLE "2020-07-29T21:19:39.662Z TO:7 Polk County - Westcom Law Enforcement 4 FROM:1377"
    INDEX 01 03:28:33
  TRACK 10 AUDIO
    TITLE "END"
    INDEX 01 03:38:71